<svg width="672.5" height="1114" viewBox="0 0 672.5 1114" xmlns="http://www.w3.org/2000/svg">
<style>
    svg {
        font-family: SFMono-Regular,Consolas,Liberation Mono,Menlo,monospace;
        font-size: 14px;
        font-kerning: normal;
        text-rendering: optimizeLegibility;
        fill: #24292e;
    }

    rect {
        fill: #f6f8fa;
        stroke: #d6d8da;
        stroke-width: 1;
    }

    .held {
        fill: #fdd;
    }

    .combo {
        fill: #cdf;
    }

    text {
        text-anchor: middle;
        dominant-baseline: middle;
    }

    .label {
        font-weight: bold;
        text-anchor: start;
    }

    .small {
        font-size: 80%;
    }
</style>
<text x="27.5" y="25.0" class="label">DEF:</text>
<rect rx="6" ry="6" x="29.5" y="52" width="55" height="50" class=""/>
<text x="57.0" y="77.0">Q</text>
<rect rx="6" ry="6" x="88.5" y="52" width="55" height="50" class=""/>
<text x="116.0" y="77.0">W</text>
<rect rx="6" ry="6" x="147.5" y="52" width="55" height="50" class=""/>
<text x="175.0" y="77.0">E</text>
<rect rx="6" ry="6" x="206.5" y="52" width="55" height="50" class=""/>
<text x="234.0" y="77.0">R</text>
<rect rx="6" ry="6" x="265.5" y="52" width="55" height="50" class=""/>
<text x="293.0" y="77.0">T</text>
<rect rx="6" ry="6" x="29.5" y="106" width="55" height="50" class=""/>
<text x="57.0" y="131.0">A</text>
<text x="57.0" y="149.0" class="small">Ctrl</text>
<rect rx="6" ry="6" x="88.5" y="106" width="55" height="50" class=""/>
<text x="116.0" y="131.0">S</text>
<text x="116.0" y="149.0" class="small">Gui</text>
<rect rx="6" ry="6" x="147.5" y="106" width="55" height="50" class=""/>
<text x="175.0" y="131.0">D</text>
<text x="175.0" y="149.0" class="small">Alt</text>
<rect rx="6" ry="6" x="206.5" y="106" width="55" height="50" class=""/>
<text x="234.0" y="131.0">F</text>
<text x="234.0" y="149.0" class="small">Shift</text>
<rect rx="6" ry="6" x="265.5" y="106" width="55" height="50" class=""/>
<text x="293.0" y="131.0">G</text>
<rect rx="6" ry="6" x="29.5" y="160" width="55" height="50" class=""/>
<text x="57.0" y="185.0">Z</text>
<rect rx="6" ry="6" x="88.5" y="160" width="55" height="50" class=""/>
<text x="116.0" y="185.0">X</text>
<rect rx="6" ry="6" x="147.5" y="160" width="55" height="50" class=""/>
<text x="175.0" y="185.0">C</text>
<rect rx="6" ry="6" x="206.5" y="160" width="55" height="50" class=""/>
<text x="234.0" y="185.0">V</text>
<rect rx="6" ry="6" x="265.5" y="160" width="55" height="50" class=""/>
<text x="293.0" y="185.0">B</text>
<rect rx="6" ry="6" x="352.0" y="52" width="55" height="50" class=""/>
<text x="379.5" y="77.0">Y</text>
<rect rx="6" ry="6" x="411.0" y="52" width="55" height="50" class=""/>
<text x="438.5" y="77.0">U</text>
<rect rx="6" ry="6" x="470.0" y="52" width="55" height="50" class=""/>
<text x="497.5" y="77.0">I</text>
<rect rx="6" ry="6" x="529.0" y="52" width="55" height="50" class=""/>
<text x="556.5" y="77.0">O</text>
<rect rx="6" ry="6" x="588.0" y="52" width="55" height="50" class=""/>
<text x="615.5" y="77.0">P</text>
<rect rx="6" ry="6" x="352.0" y="106" width="55" height="50" class=""/>
<text x="379.5" y="131.0">H</text>
<rect rx="6" ry="6" x="411.0" y="106" width="55" height="50" class=""/>
<text x="438.5" y="131.0">J</text>
<text x="438.5" y="149.0" class="small">Shift</text>
<rect rx="6" ry="6" x="470.0" y="106" width="55" height="50" class=""/>
<text x="497.5" y="131.0">K</text>
<text x="497.5" y="149.0" class="small">Alt</text>
<rect rx="6" ry="6" x="529.0" y="106" width="55" height="50" class=""/>
<text x="556.5" y="131.0">L</text>
<text x="556.5" y="149.0" class="small">Gui</text>
<rect rx="6" ry="6" x="588.0" y="106" width="55" height="50" class=""/>
<text x="615.5" y="131.0">&#x27;</text>
<text x="615.5" y="149.0" class="small">Ctrl</text>
<rect rx="6" ry="6" x="352.0" y="160" width="55" height="50" class=""/>
<text x="379.5" y="185.0">N</text>
<rect rx="6" ry="6" x="411.0" y="160" width="55" height="50" class=""/>
<text x="438.5" y="185.0">M</text>
<rect rx="6" ry="6" x="470.0" y="160" width="55" height="50" class=""/>
<text x="497.5" y="185.0">,</text>
<rect rx="6" ry="6" x="529.0" y="160" width="55" height="50" class=""/>
<text x="556.5" y="185.0">.</text>
<rect rx="6" ry="6" x="588.0" y="160" width="55" height="50" class=""/>
<text x="615.5" y="185.0">/</text>
<rect rx="6" ry="6" x="206.5" y="214" width="55" height="50" class=""/>
<text x="234.0" y="239.0">Esc</text>
<text x="234.0" y="257.0" class="small">Ctrl</text>
<rect rx="6" ry="6" x="265.5" y="214" width="55" height="50" class=""/>
<text x="293.0" y="239.0">BSpace</text>
<text x="293.0" y="257.0" class="small">NAV</text>
<rect rx="6" ry="6" x="352.0" y="214" width="55" height="50" class=""/>
<text x="379.5" y="239.0">Space</text>
<text x="379.5" y="257.0" class="small">SYM</text>
<rect rx="6" ry="6" x="411.0" y="214" width="55" height="50" class=""/>
<text x="438.5" y="239.0">Enter</text>
<text x="438.5" y="257.0" class="small">Shift</text>
<rect rx="6" ry="6" x="72.75" y="64.5" width="27.5" height="25.0" class="combo"/>
<text x="86.5" y="77.0" class="small">`</text>
<rect rx="6" ry="6" x="454.25" y="64.5" width="27.5" height="25.0" class="combo"/>
<text x="468.0" y="77.0" class="small">;</text>
<rect rx="6" ry="6" x="190.75" y="118.5" width="27.5" height="25.0" class="combo"/>
<text x="204.5" y="131.0" class="small">(</text>
<rect rx="6" ry="6" x="454.25" y="118.5" width="27.5" height="25.0" class="combo"/>
<text x="468.0" y="131.0" class="small">)</text>
<rect rx="6" ry="6" x="131.75" y="118.5" width="27.5" height="25.0" class="combo"/>
<text x="145.5" y="131.0" class="small">[</text>
<rect rx="6" ry="6" x="513.25" y="118.5" width="27.5" height="25.0" class="combo"/>
<text x="527.0" y="131.0" class="small">]</text>
<rect rx="6" ry="6" x="572.25" y="118.5" width="27.5" height="25.0" class="combo"/>
<text x="586.0" y="131.0" class="small">\</text>
<text x="27.5" y="291.0" class="label">SYM:</text>
<rect rx="6" ry="6" x="29.5" y="318" width="55" height="50" class=""/>
<text x="57.0" y="343.0">!</text>
<rect rx="6" ry="6" x="88.5" y="318" width="55" height="50" class=""/>
<text x="116.0" y="343.0">@</text>
<rect rx="6" ry="6" x="147.5" y="318" width="55" height="50" class=""/>
<text x="175.0" y="343.0">#</text>
<rect rx="6" ry="6" x="206.5" y="318" width="55" height="50" class=""/>
<text x="234.0" y="343.0">$</text>
<rect rx="6" ry="6" x="265.5" y="318" width="55" height="50" class=""/>
<text x="293.0" y="343.0">%</text>
<rect rx="6" ry="6" x="29.5" y="372" width="55" height="50" class=""/>
<text x="57.0" y="397.0">+</text>
<rect rx="6" ry="6" x="88.5" y="372" width="55" height="50" class=""/>
<text x="116.0" y="397.0">=</text>
<rect rx="6" ry="6" x="147.5" y="372" width="55" height="50" class=""/>
<text x="175.0" y="397.0">_</text>
<rect rx="6" ry="6" x="206.5" y="372" width="55" height="50" class=""/>
<text x="234.0" y="397.0">-</text>
<rect rx="6" ry="6" x="265.5" y="372" width="55" height="50" class=""/>
<text x="293.0" y="397.0">^</text>
<rect rx="6" ry="6" x="29.5" y="426" width="55" height="50" class=""/>
<rect rx="6" ry="6" x="88.5" y="426" width="55" height="50" class=""/>
<text x="116.0" y="451.0">¿</text>
<rect rx="6" ry="6" x="147.5" y="426" width="55" height="50" class=""/>
<text x="175.0" y="451.0">\</text>
<rect rx="6" ry="6" x="206.5" y="426" width="55" height="50" class=""/>
<text x="234.0" y="451.0">*</text>
<rect rx="6" ry="6" x="265.5" y="426" width="55" height="50" class=""/>
<text x="293.0" y="451.0">&amp;</text>
<rect rx="6" ry="6" x="352.0" y="318" width="55" height="50" class=""/>
<text x="379.5" y="343.0">\</text>
<rect rx="6" ry="6" x="411.0" y="318" width="55" height="50" class=""/>
<text x="438.5" y="343.0">7</text>
<rect rx="6" ry="6" x="470.0" y="318" width="55" height="50" class=""/>
<text x="497.5" y="343.0">8</text>
<rect rx="6" ry="6" x="529.0" y="318" width="55" height="50" class=""/>
<text x="556.5" y="343.0">9</text>
<rect rx="6" ry="6" x="588.0" y="318" width="55" height="50" class=""/>
<text x="615.5" y="343.0">,</text>
<rect rx="6" ry="6" x="352.0" y="372" width="55" height="50" class=""/>
<text x="379.5" y="397.0">0</text>
<rect rx="6" ry="6" x="411.0" y="372" width="55" height="50" class=""/>
<text x="438.5" y="397.0">4</text>
<rect rx="6" ry="6" x="470.0" y="372" width="55" height="50" class=""/>
<text x="497.5" y="397.0">5</text>
<rect rx="6" ry="6" x="529.0" y="372" width="55" height="50" class=""/>
<text x="556.5" y="397.0">6</text>
<rect rx="6" ry="6" x="588.0" y="372" width="55" height="50" class=""/>
<text x="615.5" y="397.0">.</text>
<rect rx="6" ry="6" x="352.0" y="426" width="55" height="50" class=""/>
<text x="379.5" y="451.0">;</text>
<rect rx="6" ry="6" x="411.0" y="426" width="55" height="50" class=""/>
<text x="438.5" y="451.0">1</text>
<rect rx="6" ry="6" x="470.0" y="426" width="55" height="50" class=""/>
<text x="497.5" y="451.0">2</text>
<rect rx="6" ry="6" x="529.0" y="426" width="55" height="50" class=""/>
<text x="556.5" y="451.0">3</text>
<rect rx="6" ry="6" x="588.0" y="426" width="55" height="50" class=""/>
<text x="615.5" y="451.0">/</text>
<rect rx="6" ry="6" x="206.5" y="480" width="55" height="50" class=""/>
<text x="234.0" y="505.0">Space</text>
<rect rx="6" ry="6" x="265.5" y="480" width="55" height="50" class=""/>
<text x="293.0" y="505.0">FUN</text>
<rect rx="6" ry="6" x="352.0" y="480" width="55" height="50" class="held"/>
<rect rx="6" ry="6" x="411.0" y="480" width="55" height="50" class=""/>
<text x="438.5" y="505.0">Shift</text>
<text x="27.5" y="557.0" class="label">NAV:</text>
<rect rx="6" ry="6" x="29.5" y="584" width="55" height="50" class=""/>
<text x="57.0" y="600.0">Win</text>
<text x="57.0" y="618.0">Close</text>
<rect rx="6" ry="6" x="88.5" y="584" width="55" height="50" class=""/>
<text x="116.0" y="600.0">Tab</text>
<text x="116.0" y="618.0">Prev</text>
<rect rx="6" ry="6" x="147.5" y="584" width="55" height="50" class=""/>
<text x="175.0" y="600.0">Tab</text>
<text x="175.0" y="618.0">Next</text>
<rect rx="6" ry="6" x="206.5" y="584" width="55" height="50" class=""/>
<text x="234.0" y="600.0">Tab</text>
<text x="234.0" y="618.0">Close</text>
<rect rx="6" ry="6" x="265.5" y="584" width="55" height="50" class=""/>
<text x="293.0" y="600.0">Vol</text>
<text x="293.0" y="618.0">Up</text>
<rect rx="6" ry="6" x="29.5" y="638" width="55" height="50" class=""/>
<text x="57.0" y="663.0">Ctrl</text>
<rect rx="6" ry="6" x="88.5" y="638" width="55" height="50" class=""/>
<text x="116.0" y="663.0">Gui</text>
<rect rx="6" ry="6" x="147.5" y="638" width="55" height="50" class=""/>
<text x="175.0" y="663.0">Alt</text>
<rect rx="6" ry="6" x="206.5" y="638" width="55" height="50" class=""/>
<text x="234.0" y="663.0">Tab</text>
<text x="234.0" y="681.0" class="small">Shift</text>
<rect rx="6" ry="6" x="265.5" y="638" width="55" height="50" class=""/>
<text x="293.0" y="654.0">Vol</text>
<text x="293.0" y="672.0">Down</text>
<rect rx="6" ry="6" x="29.5" y="692" width="55" height="50" class=""/>
<rect rx="6" ry="6" x="88.5" y="692" width="55" height="50" class=""/>
<text x="116.0" y="708.0">Win</text>
<text x="116.0" y="726.0">Prev</text>
<rect rx="6" ry="6" x="147.5" y="692" width="55" height="50" class=""/>
<text x="175.0" y="708.0">Win</text>
<text x="175.0" y="726.0">Next</text>
<rect rx="6" ry="6" x="206.5" y="692" width="55" height="50" class=""/>
<text x="234.0" y="717.0">Paste</text>
<rect rx="6" ry="6" x="265.5" y="692" width="55" height="50" class=""/>
<text x="293.0" y="708.0">Play</text>
<text x="293.0" y="726.0">Pause</text>
<rect rx="6" ry="6" x="352.0" y="584" width="55" height="50" class=""/>
<text x="379.5" y="609.0">Home</text>
<rect rx="6" ry="6" x="411.0" y="584" width="55" height="50" class=""/>
<text x="438.5" y="600.0">Page</text>
<text x="438.5" y="618.0">Down</text>
<rect rx="6" ry="6" x="470.0" y="584" width="55" height="50" class=""/>
<text x="497.5" y="600.0">Page</text>
<text x="497.5" y="618.0">Up</text>
<rect rx="6" ry="6" x="529.0" y="584" width="55" height="50" class=""/>
<text x="556.5" y="609.0">End</text>
<rect rx="6" ry="6" x="588.0" y="584" width="55" height="50" class=""/>
<rect rx="6" ry="6" x="352.0" y="638" width="55" height="50" class=""/>
<text x="379.5" y="663.0">Left</text>
<rect rx="6" ry="6" x="411.0" y="638" width="55" height="50" class=""/>
<text x="438.5" y="663.0">Down</text>
<rect rx="6" ry="6" x="470.0" y="638" width="55" height="50" class=""/>
<text x="497.5" y="663.0">Up</text>
<rect rx="6" ry="6" x="529.0" y="638" width="55" height="50" class=""/>
<text x="556.5" y="663.0">Right</text>
<rect rx="6" ry="6" x="588.0" y="638" width="55" height="50" class=""/>
<text x="615.5" y="663.0">Calc</text>
<rect rx="6" ry="6" x="352.0" y="692" width="55" height="50" class=""/>
<text x="379.5" y="717.0">Insert</text>
<rect rx="6" ry="6" x="411.0" y="692" width="55" height="50" class=""/>
<text x="438.5" y="717.0">Delete</text>
<rect rx="6" ry="6" x="470.0" y="692" width="55" height="50" class=""/>
<text x="497.5" y="717.0">Prev</text>
<rect rx="6" ry="6" x="529.0" y="692" width="55" height="50" class=""/>
<text x="556.5" y="717.0">Next</text>
<rect rx="6" ry="6" x="588.0" y="692" width="55" height="50" class=""/>
<rect rx="6" ry="6" x="206.5" y="746" width="55" height="50" class=""/>
<text x="234.0" y="771.0">Ctrl</text>
<rect rx="6" ry="6" x="265.5" y="746" width="55" height="50" class="held"/>
<rect rx="6" ry="6" x="352.0" y="746" width="55" height="50" class=""/>
<text x="379.5" y="771.0">FUN</text>
<rect rx="6" ry="6" x="411.0" y="746" width="55" height="50" class=""/>
<text x="438.5" y="771.0">Shift</text>
<text x="27.5" y="823.0" class="label">FUN:</text>
<rect rx="6" ry="6" x="29.5" y="850" width="55" height="50" class=""/>
<text x="57.0" y="875.0">F1</text>
<rect rx="6" ry="6" x="88.5" y="850" width="55" height="50" class=""/>
<text x="116.0" y="875.0">F2</text>
<rect rx="6" ry="6" x="147.5" y="850" width="55" height="50" class=""/>
<text x="175.0" y="875.0">F3</text>
<rect rx="6" ry="6" x="206.5" y="850" width="55" height="50" class=""/>
<text x="234.0" y="875.0">F4</text>
<rect rx="6" ry="6" x="265.5" y="850" width="55" height="50" class=""/>
<text x="293.0" y="875.0">F5</text>
<rect rx="6" ry="6" x="29.5" y="904" width="55" height="50" class=""/>
<text x="57.0" y="929.0">F6</text>
<rect rx="6" ry="6" x="88.5" y="904" width="55" height="50" class=""/>
<text x="116.0" y="929.0">F7</text>
<rect rx="6" ry="6" x="147.5" y="904" width="55" height="50" class=""/>
<text x="175.0" y="929.0">F8</text>
<rect rx="6" ry="6" x="206.5" y="904" width="55" height="50" class=""/>
<text x="234.0" y="929.0">F9</text>
<rect rx="6" ry="6" x="265.5" y="904" width="55" height="50" class=""/>
<text x="293.0" y="929.0">F10</text>
<rect rx="6" ry="6" x="29.5" y="958" width="55" height="50" class=""/>
<rect rx="6" ry="6" x="88.5" y="958" width="55" height="50" class=""/>
<text x="116.0" y="974.0">Desk</text>
<text x="116.0" y="992.0">Prev</text>
<rect rx="6" ry="6" x="147.5" y="958" width="55" height="50" class=""/>
<text x="175.0" y="974.0">Desk</text>
<text x="175.0" y="992.0">Next</text>
<rect rx="6" ry="6" x="206.5" y="958" width="55" height="50" class=""/>
<text x="234.0" y="983.0">F11</text>
<rect rx="6" ry="6" x="265.5" y="958" width="55" height="50" class=""/>
<text x="293.0" y="983.0">F12</text>
<rect rx="6" ry="6" x="352.0" y="850" width="55" height="50" class=""/>
<text x="379.5" y="866.0">Caps</text>
<text x="379.5" y="884.0">Lock</text>
<rect rx="6" ry="6" x="411.0" y="850" width="55" height="50" class=""/>
<rect rx="6" ry="6" x="470.0" y="850" width="55" height="50" class=""/>
<text x="497.5" y="875.0">DEF</text>
<rect rx="6" ry="6" x="529.0" y="850" width="55" height="50" class=""/>
<text x="556.5" y="875.0">CLM</text>
<rect rx="6" ry="6" x="588.0" y="850" width="55" height="50" class=""/>
<text x="615.5" y="875.0">GME</text>
<rect rx="6" ry="6" x="352.0" y="904" width="55" height="50" class=""/>
<text x="379.5" y="929.0">BT1</text>
<rect rx="6" ry="6" x="411.0" y="904" width="55" height="50" class=""/>
<text x="438.5" y="929.0">BT2</text>
<rect rx="6" ry="6" x="470.0" y="904" width="55" height="50" class=""/>
<text x="497.5" y="929.0">BT3</text>
<rect rx="6" ry="6" x="529.0" y="904" width="55" height="50" class=""/>
<text x="556.5" y="929.0">BT4</text>
<rect rx="6" ry="6" x="588.0" y="904" width="55" height="50" class=""/>
<text x="615.5" y="929.0">BT5</text>
<rect rx="6" ry="6" x="352.0" y="958" width="55" height="50" class=""/>
<text x="379.5" y="974.0">Out</text>
<text x="379.5" y="992.0">USB</text>
<rect rx="6" ry="6" x="411.0" y="958" width="55" height="50" class=""/>
<text x="438.5" y="974.0">Out</text>
<text x="438.5" y="992.0">BLE</text>
<rect rx="6" ry="6" x="470.0" y="958" width="55" height="50" class=""/>
<text x="497.5" y="974.0">Print</text>
<text x="497.5" y="992.0">Scrn</text>
<rect rx="6" ry="6" x="529.0" y="958" width="55" height="50" class=""/>
<text x="556.5" y="974.0">Pause</text>
<text x="556.5" y="992.0">Break</text>
<rect rx="6" ry="6" x="588.0" y="958" width="55" height="50" class=""/>
<text x="615.5" y="974.0">BT</text>
<text x="615.5" y="992.0">CLR</text>
<rect rx="6" ry="6" x="206.5" y="1012" width="55" height="50" class=""/>
<text x="234.0" y="1037.0">Reset</text>
<rect rx="6" ry="6" x="265.5" y="1012" width="55" height="50" class="held"/>
<rect rx="6" ry="6" x="352.0" y="1012" width="55" height="50" class="held"/>
<rect rx="6" ry="6" x="411.0" y="1012" width="55" height="50" class=""/>
<text x="438.5" y="1037.0">Reset</text>
</svg>
